{
    "asset" : {
        "generator" : "Khronos glTF Blender I/O v1.8.19",
        "version" : "2.0"
    },
    "scene" : 0,
    "scenes" : [
        {
            "name" : "Scene",
            "nodes" : [
                0,
                1
            ]
        }
    ],
    "nodes" : [
        {
            "mesh" : 0,
            "name" : "Vert.001",
            "translation" : [
                0,
                -6.21999979019165,
                0
            ]
        },
        {
            "mesh" : 1,
            "name" : "Plane.001",
            "scale" : [
                37.999996185302734,
                1,
                42.04999923706055
            ]
        }
    ],
    "materials" : [
        {
            "doubleSided" : true,
            "name" : "Material.005",
            "pbrMetallicRoughness" : {
                "metallicFactor" : 0
            }
        },
        {
            "doubleSided" : true,
            "name" : "Material.001",
            "pbrMetallicRoughness" : {
                "baseColorFactor" : [
                    0.022673513740301132,
                    0.07657948136329651,
                    0.009599619545042515,
                    1
                ],
                "metallicFactor" : 0,
                "roughnessFactor" : 0.5
            }
        }
    ],
    "meshes" : [
        {
            "name" : "Vert.001",
            "primitives" : [
                {
                    "attributes" : {
                        "POSITION" : 0,
                        "NORMAL" : 1
                    },
                    "indices" : 2,
                    "material" : 0
                }
            ]
        },
        {
            "name" : "Plane.003",
            "primitives" : [
                {
                    "attributes" : {
                        "POSITION" : 3,
                        "NORMAL" : 4,
                        "TEXCOORD_0" : 5
                    },
                    "indices" : 6,
                    "material" : 1
                }
            ]
        }
    ],
    "accessors" : [
        {
            "bufferView" : 0,
            "componentType" : 5126,
            "count" : 6634,
            "max" : [
                34.751651763916016,
                8.047353744506836,
                17.412485122680664
            ],
            "min" : [
                -31.46485710144043,
                7.717012405395508,
                -36.68090057373047
            ],
            "type" : "VEC3"
        },
        {
            "bufferView" : 1,
            "componentType" : 5126,
            "count" : 6634,
            "type" : "VEC3"
        },
        {
            "bufferView" : 2,
            "componentType" : 5123,
            "count" : 10296,
            "type" : "SCALAR"
        },
        {
            "bufferView" : 3,
            "componentType" : 5126,
            "count" : 4,
            "max" : [
                1,
                0,
                1
            ],
            "min" : [
                -1,
                0,
                -1
            ],
            "type" : "VEC3"
        },
        {
            "bufferView" : 4,
            "componentType" : 5126,
            "count" : 4,
            "type" : "VEC3"
        },
        {
            "bufferView" : 5,
            "componentType" : 5126,
            "count" : 4,
            "type" : "VEC2"
        },
        {
            "bufferView" : 6,
            "componentType" : 5123,
            "count" : 6,
            "type" : "SCALAR"
        }
    ],
    "bufferViews" : [
        {
            "buffer" : 0,
            "byteLength" : 79608,
            "byteOffset" : 0
        },
        {
            "buffer" : 0,
            "byteLength" : 79608,
            "byteOffset" : 79608
        },
        {
            "buffer" : 0,
            "byteLength" : 20592,
            "byteOffset" : 159216
        },
        {
            "buffer" : 0,
            "byteLength" : 48,
            "byteOffset" : 179808
        },
        {
            "buffer" : 0,
            "byteLength" : 48,
            "byteOffset" : 179856
        },
        {
            "buffer" : 0,
            "byteLength" : 32,
            "byteOffset" : 179904
        },
        {
            "buffer" : 0,
            "byteLength" : 12,
            "byteOffset" : 179936
        }
    ],
    "buffers" : [
        {
            "byteLength" : 179948,
            "uri" : "data:application/octet-stream;base64,"
        }
    ]
}
